<svg width="20" height="20" viewBox="0 0 20 20" fill="none" xmlns="http://www.w3.org/2000/svg">
<path fill-rule="evenodd" clip-rule="evenodd" d="M0 10C0 4.47 4.47 0 10 0C15.53 0 20 4.47 20 10C20 15.53 15.53 20 10 20C4.47 20 0 15.53 0 10ZM14.707 14.707C15.098 14.316 15.098 13.684 14.707 13.293L11.414 10L14.707 6.707C15.098 6.316 15.098 5.684 14.707 5.293C14.316 4.902 13.684 4.902 13.293 5.293L10 8.586L6.707 5.293C6.316 4.902 5.684 4.902 5.293 5.293C4.902 5.684 4.902 6.316 5.293 6.707L8.586 10L5.293 13.293C4.902 13.684 4.902 14.316 5.293 14.707C5.488 14.902 5.744 15 6 15C6.256 15 6.512 14.902 6.707 14.707L10 11.414L13.293 14.707C13.488 14.902 13.744 15 14 15C14.256 15 14.512 14.902 14.707 14.707Z" fill="#FA3333"/>
</svg>
