<svg width="16" height="16" viewBox="0 0 16 16" fill="none" xmlns="http://www.w3.org/2000/svg">
<path d="M1.99022 0.990245C1.5833 0.990351 1.21701 1.237 1.06389 1.61401C0.910769 1.99103 1.00134 2.42323 1.29296 2.70704L6.58593 8.00001L1.29296 13.293C1.03172 13.5438 0.926486 13.9162 1.01784 14.2667C1.1092 14.6171 1.38287 14.8908 1.73331 14.9822C2.08375 15.0735 2.4562 14.9683 2.70702 14.707L7.99999 9.41407L13.293 14.707C13.5438 14.9683 13.9162 15.0735 14.2667 14.9822C14.6171 14.8908 14.8908 14.6171 14.9821 14.2667C15.0735 13.9162 14.9683 13.5438 14.707 13.293L9.41405 8.00001L14.707 2.70704C15.0028 2.41955 15.0917 1.97998 14.931 1.60013C14.7702 1.22028 14.3927 0.978086 13.9805 0.990245C13.7207 0.997986 13.4741 1.10656 13.293 1.29298L7.99999 6.58595L2.70702 1.29298C2.51875 1.09945 2.26022 0.99026 1.99022 0.990245Z" fill="#BABABA"/>
</svg>
