<svg width="20" height="20" viewBox="0 0 20 20" fill="none" xmlns="http://www.w3.org/2000/svg">
<path fill-rule="evenodd" clip-rule="evenodd" d="M7.50971 0.808594C7.60171 0.338594 8.01118 0 8.49018 0H11.5097C11.9887 0 12.3982 0.338594 12.4902 0.808594L12.8242 2.52344C13.6446 2.83366 14.4041 3.26579 15.0703 3.8125L16.7148 3.24609C17.1678 3.09109 17.6672 3.27836 17.9062 3.69336L19.414 6.30664C19.653 6.72164 19.566 7.2485 19.205 7.5625L17.8867 8.70898C17.9552 9.13034 17.9999 9.55928 17.9999 10C17.9999 10.4407 17.9552 10.8697 17.8867 11.291L19.205 12.4375C19.566 12.7515 19.653 13.2764 19.414 13.6914L17.9062 16.3066C17.6662 16.7216 17.1678 16.908 16.7148 16.752L15.0703 16.1855C14.4038 16.7326 13.6449 17.1662 12.8242 17.4766L12.4902 19.1914C12.3982 19.6614 11.9887 20 11.5097 20H8.49018C8.01118 20 7.60171 19.6614 7.50971 19.1914L7.17572 17.4766C6.35534 17.1663 5.59583 16.7342 4.92963 16.1875L3.2851 16.7539C2.8321 16.9089 2.33269 16.7216 2.09369 16.3066L0.585881 13.6934C0.346881 13.2784 0.433866 12.7515 0.794866 12.4375L2.11322 11.291C2.04466 10.8697 1.99994 10.4407 1.99994 10C1.99994 9.55928 2.04466 9.13034 2.11322 8.70898L0.794866 7.5625C0.433866 7.2485 0.346881 6.72164 0.585881 6.30664L2.09369 3.69336C2.33369 3.27936 2.8321 3.09205 3.2851 3.24805L4.92963 3.81445C5.59605 3.2674 6.35497 2.8338 7.17572 2.52344L7.50971 0.808594ZM13.9999 10C13.9999 7.791 12.2089 6 9.99994 6C7.79094 6 5.99994 7.791 5.99994 10C5.99994 12.209 7.79094 14 9.99994 14C12.2089 14 13.9999 12.209 13.9999 10Z" fill="white"/>
</svg>
