<svg width="70" height="70" viewBox="0 0 70 70" fill="none" xmlns="http://www.w3.org/2000/svg">
<path fill-rule="evenodd" clip-rule="evenodd" d="M35 0C15.6695 0 0 15.6695 0 35C0 54.3305 15.6695 70 35 70C54.3305 70 70 54.3305 70 35C70 15.6695 54.3305 0 35 0ZM33.25 52.5C32.284 52.5 31.5 51.716 31.5 50.75V47.25C31.5 46.284 32.284 45.5 33.25 45.5H36.75C37.716 45.5 38.5 46.284 38.5 47.25V50.75C38.5 51.716 37.716 52.5 36.75 52.5H33.25ZM31.5 35C31.5 36.932 33.068 38.5 35 38.5C36.932 38.5 38.5 36.932 38.5 35V21C38.5 19.068 36.932 17.5 35 17.5C33.068 17.5 31.5 19.068 31.5 21V35Z" fill="#EC2F2F"/>
</svg>
