<svg width="18" height="19" viewBox="0 0 18 19" fill="none" xmlns="http://www.w3.org/2000/svg">
<path fill-rule="evenodd" clip-rule="evenodd" d="M10.9277 2.34375L12.3418 0.929688L14.4629 3.05078L16.584 0.929688L17.998 2.34375L15.877 4.46484L17.998 6.58594L16.584 8L14.4629 5.87891L12.3418 8L10.9277 6.58594L13.0488 4.46484L10.9277 2.34375ZM0 2C0 1.328 0.562 1 1 1H4.50977C5.05477 1 5.49872 1.43156 5.51172 1.97656C5.52772 2.60656 5.56334 3.39939 5.65234 3.90039C5.74734 4.44239 5.93417 5.09473 6.07617 5.55273C6.18817 5.91273 6.09022 6.30527 5.82422 6.57227L3.61914 8.78906C4.42614 10.3211 5.36711 11.5489 6.41211 12.5879C7.45111 13.6329 8.67894 14.5739 10.2109 15.3809L12.4277 13.1758C12.6947 12.9098 13.0853 12.8118 13.4453 12.9238C13.9043 13.0668 14.5576 13.2517 15.0996 13.3477C15.6006 13.4357 16.3934 13.4733 17.0234 13.4883C17.5684 13.5013 18 13.9452 18 14.4902V18C18 18.438 17.672 19 17 19C12.461 19 8.1268 17.1592 4.9668 14.0332C1.8408 10.8732 0 6.539 0 2Z" fill="white"/>
</svg>
