<svg width="15" height="16" viewBox="0 0 15 16" fill="none" xmlns="http://www.w3.org/2000/svg">
<path d="M13.9235 14.5525L14.3839 14.0936L14.3834 14.0932L13.9235 14.5525ZM9.84453 10.468L9.39301 10.0004L8.91752 10.4595L9.3846 10.9273L9.84453 10.468ZM9.4388 10.8243L9.89874 10.365L9.48776 9.95341L9.03324 10.3163L9.4388 10.8243ZM13.5276 14.9189L13.9889 14.4609L13.9876 14.4596L13.5276 14.9189ZM13.9158 14.9263L14.3567 15.4039L14.3576 15.403L13.9158 14.9263ZM14.3834 14.0932L10.3045 10.0087L9.3846 10.9273L13.4636 15.0118L14.3834 14.0932ZM10.2961 10.9355C11.4547 9.81668 12.1795 8.26618 12.1795 6.55073H10.8795C10.8795 7.89029 10.3152 9.10988 9.39301 10.0004L10.2961 10.9355ZM12.1795 6.55073C12.1795 3.10796 9.27917 0.35 5.76474 0.35V1.65C8.60799 1.65 10.8795 3.87184 10.8795 6.55073H12.1795ZM5.76474 0.35C2.25031 0.35 -0.65 3.10796 -0.65 6.55073H0.65C0.65 3.87184 2.92149 1.65 5.76474 1.65V0.35ZM-0.65 6.55073C-0.65 9.9935 2.25031 12.7515 5.76474 12.7515V11.4515C2.92149 11.4515 0.65 9.22962 0.65 6.55073H-0.65ZM5.76474 12.7515C7.31109 12.7515 8.73394 12.2188 9.84437 11.3322L9.03324 10.3163C8.14742 11.0236 7.00907 11.4515 5.76474 11.4515V12.7515ZM8.97886 11.2836L13.0677 15.3782L13.9876 14.4596L9.89874 10.365L8.97886 11.2836ZM13.0664 15.3768C13.251 15.5627 13.493 15.65 13.7256 15.65V14.35C13.8138 14.35 13.9119 14.3834 13.9889 14.4609L13.0664 15.3768ZM13.7256 15.65C13.9488 15.65 14.1771 15.5697 14.3567 15.4039L13.4749 14.4487C13.5481 14.3811 13.6396 14.35 13.7256 14.35V15.65ZM14.3576 15.403C14.7366 15.0519 14.7491 14.46 14.3839 14.0936L13.4631 15.0114C13.3076 14.8554 13.3135 14.5982 13.474 14.4495L14.3576 15.403ZM5.76474 10.9228C3.22427 10.9228 1.19902 8.93807 1.19902 6.55073H-0.100977C-0.100977 9.70196 2.55309 12.2228 5.76474 12.2228V10.9228ZM1.19902 6.55073C1.19902 4.16339 3.22427 2.17864 5.76474 2.17864V0.878641C2.55309 0.878641 -0.100977 3.3995 -0.100977 6.55073H1.19902ZM5.76474 2.17864C8.30521 2.17864 10.3305 4.16339 10.3305 6.55073H11.6305C11.6305 3.3995 8.97639 0.878641 5.76474 0.878641V2.17864ZM10.3305 6.55073C10.3305 8.93805 8.30496 10.9228 5.76474 10.9228V12.2228C8.97609 12.2228 11.6305 9.70198 11.6305 6.55073H10.3305Z" fill="#B3B3B3"/>
</svg>
