<svg width="70" height="70" viewBox="0 0 70 70" fill="none" xmlns="http://www.w3.org/2000/svg">
<path fill-rule="evenodd" clip-rule="evenodd" d="M0 35C0 15.6695 15.6695 0 35 0C54.3305 0 70 15.6695 70 35C70 54.3305 54.3305 70 35 70C15.6695 70 0 54.3305 0 35ZM30.4745 51.4745L54.9745 26.9745C56.343 25.606 56.343 23.394 54.9745 22.0255C53.606 20.657 51.394 20.657 50.0255 22.0255L28 44.051L19.9745 36.0255C18.606 34.657 16.394 34.657 15.0255 36.0255C13.657 37.394 13.657 39.606 15.0255 40.9745L25.5255 51.4745C26.208 52.157 27.104 52.5 28 52.5C28.896 52.5 29.792 52.157 30.4745 51.4745Z" fill="#3FC726"/>
</svg>
